# xmcd
#
# Track frame offsets:
# 150
# 15218
# 31955
# 44850
# 59507
# 76432
# 94065
# 110877
# 131134
# 142914
# 158885
# 172909
# 188388
# 203391
#
# Disc length: 2909 seconds
#
#
# Revision: 0
# Processed by: cddbd v1.5.2PL0 Copyright (c) Steve Scherf et al.
# Submitted via: FreeRIP 2.96 
#
DISCID=b30b5b0e
DTITLE=Sergio Reis - Sergio Reis Em Foco
DYEAR=1900
DGENRE=Country
TTITLE0=O Menino da Porteira
TTITLE1=Tocando em Frente
TTITLE2=Saudade de Minha Terra
TTITLE3=Panela Velha
TTITLE4=Boiadeiro Errante - com Almir Sater
TTITLE5=Disparada
TTITLE6=Comitiva Esperança
TTITLE7=Pinga ne Mim
TTITLE8=Pinga no Pinheiro
TTITLE9=O Tempo Vai Apagar
TTITLE10=Outra Vez
TTITLE11=Vaca Estrela e Boi Fubá
TTITLE12=Fazenda São Francisco (Maior Proeza)
TTITLE13=Trem do Pantanal
EXTD=
EXTT0=
EXTT1=
EXTT2=
EXTT3=
EXTT4=
EXTT5=
EXTT6=
EXTT7=
EXTT8=
EXTT9=
EXTT10=
EXTT11=
EXTT12=
EXTT13=
PLAYORDER=
